# xmcd CD database file
#
# Track frame offsets:
#	150
#	26892
#	42175
#	64157
#	88632
#	113672
#	151497
#	180307
#	205637
#	218605
#	245387
#	262465
#	279457
#	320362
#	323467
#	325972
#
# Disc length: 4671 seconds
#
# Revision: 2
# Processed by: cddbd v1.5.1PL0 Copyright (c) Steve Scherf et al.
# Submitted via: CDex 1.51
#
DISCID=dd123d10
DTITLE=パラダイス・ガラージ - かっこいいということはなんてかっこいいんだろう
DYEAR=2000
DGENRE=Rock
TTITLE0=UFOキャッチャー
TTITLE1=夏に向かって
TTITLE2=レイニー・デイ
TTITLE3=移動遊園地
TTITLE4=仕事
TTITLE5=16秒の夢
TTITLE6=サマー・ソフト
TTITLE7=Forever Love
TTITLE8=City Lights 2001
TTITLE9=I Love You
TTITLE10=友達のように
TTITLE11=ラスト・ナンバー
TTITLE12=海を知らない小鳥
TTITLE13=セガドリームキャスト「シェンムー体験版・笑う少女編」
TTITLE14=キャンベルスープ「シーフードドリア篇〜シーフードチャウダー篇」
TTITLE15=HAPPY-LOVE
EXTD=YEAR: 2000.12/08
EXTT0=
EXTT1=
EXTT2=
EXTT3=
EXTT4=
EXTT5=
EXTT6=
EXTT7=
EXTT8=
EXTT9=
EXTT10=
EXTT11=
EXTT12=
EXTT13=
EXTT14=
EXTT15=
PLAYORDER=
